<?xml version="1.0"?>
<!-- Generated by SVGo -->
<svg width="151.352mm" height="93.202mm"
     viewBox="0.000 0.000 151.352 93.202"
     xmlns="http://www.w3.org/2000/svg" 
     xmlns:xlink="http://www.w3.org/1999/xlink">
<polygon points="70.676,5.000 70.676,9.001 9.001,9.001 9.001,85.202 142.352,85.202 142.352,9.001 80.676,9.001 80.676,5.001 144.852,5.001 144.969,5.005 145.086,5.019 145.202,5.042 145.315,5.074 145.426,5.115 145.532,5.164 145.635,5.222 145.733,5.287 145.826,5.360 145.912,5.440 145.992,5.526 146.065,5.619 146.130,5.717 146.188,5.820 146.237,5.926 146.278,6.037 146.310,6.150 146.333,6.266 146.347,6.383 146.352,6.501 146.352,86.702 146.347,86.819 146.333,86.936 146.310,87.052 146.278,87.165 146.237,87.276 146.188,87.382 146.130,87.485 146.065,87.583 145.992,87.676 145.912,87.762 145.826,87.842 145.733,87.915 145.635,87.980 145.532,88.038 145.426,88.087 145.315,88.128 145.202,88.160 145.086,88.183 144.969,88.197 144.852,88.202 6.501,88.202 6.383,88.197 6.266,88.183 6.150,88.160 6.037,88.128 5.926,88.087 5.820,88.038 5.717,87.980 5.619,87.915 5.526,87.842 5.440,87.762 5.360,87.676 5.287,87.583 5.222,87.485 5.164,87.382 5.115,87.276 5.074,87.165 5.042,87.052 5.019,86.936 5.005,86.819 5.000,86.701 5.001,6.501 5.005,6.383 5.019,6.266 5.042,6.150 5.074,6.037 5.115,5.926 5.164,5.820 5.222,5.717 5.287,5.619 5.360,5.526 5.440,5.440 5.526,5.360 5.619,5.287 5.717,5.222 5.820,5.164 5.926,5.115 6.037,5.074 6.150,5.042 6.266,5.019 6.383,5.005 6.501,5.000" style="fill:none;stroke-width:0.050000mm;stroke:black"/>
<polygon points="6.661,85.155 6.354,85.312 6.111,85.555 5.954,85.862 5.901,86.202 5.954,86.541 6.111,86.848 6.354,87.091 6.661,87.248 7.001,87.302 7.340,87.248 7.647,87.091 7.890,86.848 8.046,86.541 8.101,86.202 8.046,85.862 7.890,85.555 7.647,85.312 7.340,85.155 7.001,85.102" style="fill:none;stroke-width:0.050000mm;stroke:black"/>
<polygon points="144.012,85.155 143.705,85.312 143.462,85.555 143.305,85.862 143.252,86.202 143.305,86.541 143.462,86.848 143.705,87.091 144.012,87.248 144.352,87.302 144.691,87.248 144.998,87.091 145.241,86.848 145.398,86.541 145.452,86.202 145.398,85.862 145.241,85.555 144.998,85.312 144.691,85.155 144.352,85.102" style="fill:none;stroke-width:0.050000mm;stroke:black"/>
<polygon points="6.661,5.954 6.354,6.111 6.111,6.354 5.954,6.661 5.901,7.001 5.954,7.340 6.111,7.647 6.354,7.890 6.661,8.046 7.001,8.101 7.340,8.046 7.647,7.890 7.890,7.647 8.046,7.340 8.101,7.001 8.046,6.661 7.890,6.354 7.647,6.111 7.340,5.954 7.001,5.901" style="fill:none;stroke-width:0.050000mm;stroke:black"/>
<polygon points="144.012,5.954 143.705,6.111 143.462,6.354 143.305,6.661 143.252,7.001 143.305,7.340 143.462,7.647 143.705,7.890 144.012,8.046 144.352,8.101 144.691,8.046 144.998,7.890 145.241,7.647 145.398,7.340 145.452,7.001 145.398,6.661 145.241,6.354 144.998,6.111 144.691,5.954 144.352,5.901" style="fill:none;stroke-width:0.050000mm;stroke:black"/>
</svg>
