  0
SECTION
  2
HEADER
  9
$ACADVER
  1
AC1009
  9
$EXTMIN
 10
0.0
 20
0.0
 30
0.0
  9
$EXTMAX
 10
1000.0
 20
1000.0
 30
0.0
  9
$FILLMODE
 70
 0
  9
$SPLFRAME
 70
 1
  0
ENDSEC
  0
SECTION
  2
TABLES
  0
TABLE
  2
LAYER
 70
1
  0
LAYER
  2
0
 70
     0
 62
     7
  6
CONTINUOUS
  0
ENDTAB
  0
ENDSEC
  0
SECTION
  2
ENTITIES
  0
LINE
  8
0
 62
     0
 10
139.945
 20
83.2803
 30
0.0
 11
140.062
 21
83.2764
 31
0.0
  0
LINE
  8
0
 62
     0
 10
140.062
 20
83.2764
 30
0.0
 11
140.179
 21
83.2626
 31
0.0
  0
LINE
  8
0
 62
     0
 10
140.179
 20
83.2626
 30
0.0
 11
140.295
 21
83.239
 31
0.0
  0
LINE
  8
0
 62
     0
 10
140.295
 20
83.239
 30
0.0
 11
140.408
 21
83.2072
 31
0.0
  0
LINE
  8
0
 62
     0
 10
140.408
 20
83.2072
 30
0.0
 11
140.52
 21
83.1674
 31
0.0
  0
LINE
  8
0
 62
     0
 10
140.52
 20
83.1674
 30
0.0
 11
140.626
 21
83.1176
 31
0.0
  0
LINE
  8
0
 62
     0
 10
140.626
 20
83.1176
 30
0.0
 11
140.729
 21
83.0598
 31
0.0
  0
LINE
  8
0
 62
     0
 10
140.729
 20
83.0598
 30
0.0
 11
140.827
 21
82.9952
 31
0.0
  0
LINE
  8
0
 62
     0
 10
140.827
 20
82.9952
 30
0.0
 11
140.92
 21
82.9222
 31
0.0
  0
LINE
  8
0
 62
     0
 10
140.92
 20
82.9222
 30
0.0
 11
141.006
 21
82.8421
 31
0.0
  0
LINE
  8
0
 62
     0
 10
141.006
 20
82.8421
 30
0.0
 11
141.086
 21
82.7553
 31
0.0
  0
LINE
  8
0
 62
     0
 10
141.086
 20
82.7553
 30
0.0
 11
141.159
 21
82.6629
 31
0.0
  0
LINE
  8
0
 62
     0
 10
141.159
 20
82.6629
 30
0.0
 11
141.224
 21
82.5652
 31
0.0
  0
LINE
  8
0
 62
     0
 10
141.224
 20
82.5652
 30
0.0
 11
141.282
 21
82.4618
 31
0.0
  0
LINE
  8
0
 62
     0
 10
141.282
 20
82.4618
 30
0.0
 11
141.33
 21
82.3556
 31
0.0
  0
LINE
  8
0
 62
     0
 10
141.33
 20
82.3556
 30
0.0
 11
141.371
 21
82.2441
 31
0.0
  0
LINE
  8
0
 62
     0
 10
141.371
 20
82.2441
 30
0.0
 11
141.403
 21
82.1313
 31
0.0
  0
LINE
  8
0
 62
     0
 10
141.403
 20
82.1313
 30
0.0
 11
141.427
 21
82.0152
 31
0.0
  0
LINE
  8
0
 62
     0
 10
141.427
 20
82.0152
 30
0.0
 11
141.441
 21
81.8981
 31
0.0
  0
LINE
  8
0
 62
     0
 10
141.441
 20
81.8981
 30
0.0
 11
141.446
 21
81.7809
 31
0.0
  0
LINE
  8
0
 62
     0
 10
141.446
 20
81.7809
 30
0.0
 11
141.446
 21
1.57923
 31
0.0
  0
LINE
  8
0
 62
     0
 10
141.446
 20
1.57923
 30
0.0
 11
141.441
 21
1.4621
 31
0.0
  0
LINE
  8
0
 62
     0
 10
141.441
 20
1.4621
 30
0.0
 11
141.427
 21
1.34634
 31
0.0
  0
LINE
  8
0
 62
     0
 10
141.427
 20
1.34634
 30
0.0
 11
141.403
 21
1.22921
 31
0.0
  0
LINE
  8
0
 62
     0
 10
141.403
 20
1.22921
 30
0.0
 11
141.371
 21
1.11621
 31
0.0
  0
LINE
  8
0
 62
     0
 10
141.371
 20
1.11621
 30
0.0
 11
141.33
 21
1.00597
 31
0.0
  0
LINE
  8
0
 62
     0
 10
141.33
 20
1.00597
 30
0.0
 11
141.282
 21
0.899859
 31
0.0
  0
LINE
  8
0
 62
     0
 10
141.282
 20
0.899859
 30
0.0
 11
141.224
 21
0.796505
 31
0.0
  0
LINE
  8
0
 62
     0
 10
141.224
 20
0.796505
 30
0.0
 11
141.159
 21
0.698666
 31
0.0
  0
LINE
  8
0
 62
     0
 10
141.159
 20
0.698666
 30
0.0
 11
141.086
 21
0.606337
 31
0.0
  0
LINE
  8
0
 62
     0
 10
141.086
 20
0.606337
 30
0.0
 11
141.006
 21
0.519522
 31
0.0
  0
LINE
  8
0
 62
     0
 10
141.006
 20
0.519522
 30
0.0
 11
140.92
 21
0.439593
 31
0.0
  0
LINE
  8
0
 62
     0
 10
140.92
 20
0.439593
 30
0.0
 11
140.827
 21
0.366557
 31
0.0
  0
LINE
  8
0
 62
     0
 10
140.827
 20
0.366557
 30
0.0
 11
140.729
 21
0.30179
 31
0.0
  0
LINE
  8
0
 62
     0
 10
140.729
 20
0.30179
 30
0.0
 11
140.626
 21
0.243913
 31
0.0
  0
LINE
  8
0
 62
     0
 10
140.626
 20
0.243913
 30
0.0
 11
140.52
 21
0.194303
 31
0.0
  0
LINE
  8
0
 62
     0
 10
140.52
 20
0.194303
 30
0.0
 11
140.408
 21
0.15434
 31
0.0
  0
LINE
  8
0
 62
     0
 10
140.408
 20
0.15434
 30
0.0
 11
140.295
 21
0.121267
 31
0.0
  0
LINE
  8
0
 62
     0
 10
140.295
 20
0.121267
 30
0.0
 11
140.179
 21
0.0992188
 31
0.0
  0
LINE
  8
0
 62
     0
 10
140.179
 20
0.0992188
 30
0.0
 11
140.062
 21
0.0840602
 31
0.0
  0
LINE
  8
0
 62
     0
 10
140.062
 20
0.0840602
 30
0.0
 11
139.945
 21
0.0799264
 31
0.0
  0
LINE
  8
0
 62
     0
 10
139.945
 20
0.0799264
 30
0.0
 11
1.59439
 21
0.0799264
 31
0.0
  0
LINE
  8
0
 62
     0
 10
1.59439
 20
0.0799264
 30
0.0
 11
1.47726
 21
0.0840602
 31
0.0
  0
LINE
  8
0
 62
     0
 10
1.47726
 20
0.0840602
 30
0.0
 11
1.36012
 21
0.0992188
 31
0.0
  0
LINE
  8
0
 62
     0
 10
1.36012
 20
0.0992188
 30
0.0
 11
1.24437
 21
0.121267
 31
0.0
  0
LINE
  8
0
 62
     0
 10
1.24437
 20
0.121267
 30
0.0
 11
1.13137
 21
0.15434
 31
0.0
  0
LINE
  8
0
 62
     0
 10
1.13137
 20
0.15434
 30
0.0
 11
1.01975
 21
0.194303
 31
0.0
  0
LINE
  8
0
 62
     0
 10
1.01975
 20
0.194303
 30
0.0
 11
0.913638
 21
0.243913
 31
0.0
  0
LINE
  8
0
 62
     0
 10
0.913638
 20
0.243913
 30
0.0
 11
0.810288
 21
0.30179
 31
0.0
  0
LINE
  8
0
 62
     0
 10
0.810288
 20
0.30179
 30
0.0
 11
0.712445
 21
0.366557
 31
0.0
  0
LINE
  8
0
 62
     0
 10
0.712445
 20
0.366557
 30
0.0
 11
0.620116
 21
0.439593
 31
0.0
  0
LINE
  8
0
 62
     0
 10
0.620116
 20
0.439593
 30
0.0
 11
0.533301
 21
0.519522
 31
0.0
  0
LINE
  8
0
 62
     0
 10
0.533301
 20
0.519522
 30
0.0
 11
0.453376
 21
0.606337
 31
0.0
  0
LINE
  8
0
 62
     0
 10
0.453376
 20
0.606337
 30
0.0
 11
0.38034
 21
0.698666
 31
0.0
  0
LINE
  8
0
 62
     0
 10
0.38034
 20
0.698666
 30
0.0
 11
0.315571
 21
0.796505
 31
0.0
  0
LINE
  8
0
 62
     0
 10
0.315571
 20
0.796505
 30
0.0
 11
0.257693
 21
0.899859
 31
0.0
  0
LINE
  8
0
 62
     0
 10
0.257693
 20
0.899859
 30
0.0
 11
0.208084
 21
1.00597
 31
0.0
  0
LINE
  8
0
 62
     0
 10
0.208084
 20
1.00597
 30
0.0
 11
0.168121
 21
1.11621
 31
0.0
  0
LINE
  8
0
 62
     0
 10
0.168121
 20
1.11621
 30
0.0
 11
0.136426
 21
1.22921
 31
0.0
  0
LINE
  8
0
 62
     0
 10
0.136426
 20
1.22921
 30
0.0
 11
0.112999
 21
1.34634
 31
0.0
  0
LINE
  8
0
 62
     0
 10
0.112999
 20
1.34634
 30
0.0
 11
0.0992188
 21
1.4621
 31
0.0
  0
LINE
  8
0
 62
     0
 10
0.0992188
 20
1.4621
 30
0.0
 11
0.0937066
 21
1.58061
 31
0.0
  0
LINE
  8
0
 62
     0
 10
0.0937066
 20
1.58061
 30
0.0
 11
0.0950846
 21
81.7809
 31
0.0
  0
LINE
  8
0
 62
     0
 10
0.0950846
 20
81.7809
 30
0.0
 11
0.0992188
 21
81.8981
 31
0.0
  0
LINE
  8
0
 62
     0
 10
0.0992188
 20
81.8981
 30
0.0
 11
0.112999
 21
82.0152
 31
0.0
  0
LINE
  8
0
 62
     0
 10
0.112999
 20
82.0152
 30
0.0
 11
0.136426
 21
82.1313
 31
0.0
  0
LINE
  8
0
 62
     0
 10
0.136426
 20
82.1313
 30
0.0
 11
0.168121
 21
82.2441
 31
0.0
  0
LINE
  8
0
 62
     0
 10
0.168121
 20
82.2441
 30
0.0
 11
0.208084
 21
82.3556
 31
0.0
  0
LINE
  8
0
 62
     0
 10
0.208084
 20
82.3556
 30
0.0
 11
0.257693
 21
82.4618
 31
0.0
  0
LINE
  8
0
 62
     0
 10
0.257693
 20
82.4618
 30
0.0
 11
0.315571
 21
82.5652
 31
0.0
  0
LINE
  8
0
 62
     0
 10
0.315571
 20
82.5652
 30
0.0
 11
0.38034
 21
82.6629
 31
0.0
  0
LINE
  8
0
 62
     0
 10
0.38034
 20
82.6629
 30
0.0
 11
0.453376
 21
82.7553
 31
0.0
  0
LINE
  8
0
 62
     0
 10
0.453376
 20
82.7553
 30
0.0
 11
0.533301
 21
82.8421
 31
0.0
  0
LINE
  8
0
 62
     0
 10
0.533301
 20
82.8421
 30
0.0
 11
0.620116
 21
82.9222
 31
0.0
  0
LINE
  8
0
 62
     0
 10
0.620116
 20
82.9222
 30
0.0
 11
0.712445
 21
82.9952
 31
0.0
  0
LINE
  8
0
 62
     0
 10
0.712445
 20
82.9952
 30
0.0
 11
0.810288
 21
83.0598
 31
0.0
  0
LINE
  8
0
 62
     0
 10
0.810288
 20
83.0598
 30
0.0
 11
0.913638
 21
83.1176
 31
0.0
  0
LINE
  8
0
 62
     0
 10
0.913638
 20
83.1176
 30
0.0
 11
1.01975
 21
83.1674
 31
0.0
  0
LINE
  8
0
 62
     0
 10
1.01975
 20
83.1674
 30
0.0
 11
1.13137
 21
83.2072
 31
0.0
  0
LINE
  8
0
 62
     0
 10
1.13137
 20
83.2072
 30
0.0
 11
1.24437
 21
83.239
 31
0.0
  0
LINE
  8
0
 62
     0
 10
1.24437
 20
83.239
 30
0.0
 11
1.36012
 21
83.2626
 31
0.0
  0
LINE
  8
0
 62
     0
 10
1.36012
 20
83.2626
 30
0.0
 11
1.47726
 21
83.2764
 31
0.0
  0
LINE
  8
0
 62
     0
 10
1.47726
 20
83.2764
 30
0.0
 11
1.59439
 21
83.2817
 31
0.0
  0
LINE
  8
0
 62
     0
 10
1.59439
 20
83.2817
 30
0.0
 11
139.945
 21
83.2803
 31
0.0
  0
LINE
  8
0
 62
     0
 10
1.75424
 20
3.12677
 30
0.0
 11
1.44832
 21
2.96967
 31
0.0
  0
LINE
  8
0
 62
     0
 10
1.44832
 20
2.96967
 30
0.0
 11
1.2044
 21
2.72714
 31
0.0
  0
LINE
  8
0
 62
     0
 10
1.2044
 20
2.72714
 30
0.0
 11
1.04731
 21
2.41984
 31
0.0
  0
LINE
  8
0
 62
     0
 10
1.04731
 20
2.41984
 30
0.0
 11
0.994943
 21
2.07946
 31
0.0
  0
LINE
  8
0
 62
     0
 10
0.994943
 20
2.07946
 30
0.0
 11
1.04731
 21
1.74046
 31
0.0
  0
LINE
  8
0
 62
     0
 10
1.04731
 20
1.74046
 30
0.0
 11
1.2044
 21
1.43316
 31
0.0
  0
LINE
  8
0
 62
     0
 10
1.2044
 20
1.43316
 30
0.0
 11
1.44832
 21
1.19063
 31
0.0
  0
LINE
  8
0
 62
     0
 10
1.44832
 20
1.19063
 30
0.0
 11
1.75424
 21
1.03353
 31
0.0
  0
LINE
  8
0
 62
     0
 10
1.75424
 20
1.03353
 30
0.0
 11
2.09462
 21
0.979784
 31
0.0
  0
LINE
  8
0
 62
     0
 10
2.09462
 20
0.979784
 30
0.0
 11
2.43362
 21
1.03353
 31
0.0
  0
LINE
  8
0
 62
     0
 10
2.43362
 20
1.03353
 30
0.0
 11
2.74092
 21
1.19063
 31
0.0
  0
LINE
  8
0
 62
     0
 10
2.74092
 20
1.19063
 30
0.0
 11
2.98345
 21
1.43316
 31
0.0
  0
LINE
  8
0
 62
     0
 10
2.98345
 20
1.43316
 30
0.0
 11
3.13917
 21
1.74046
 31
0.0
  0
LINE
  8
0
 62
     0
 10
3.13917
 20
1.74046
 30
0.0
 11
3.19429
 21
2.07946
 31
0.0
  0
LINE
  8
0
 62
     0
 10
3.19429
 20
2.07946
 30
0.0
 11
3.13917
 21
2.41984
 31
0.0
  0
LINE
  8
0
 62
     0
 10
3.13917
 20
2.41984
 30
0.0
 11
2.98345
 21
2.72714
 31
0.0
  0
LINE
  8
0
 62
     0
 10
2.98345
 20
2.72714
 30
0.0
 11
2.74092
 21
2.96967
 31
0.0
  0
LINE
  8
0
 62
     0
 10
2.74092
 20
2.96967
 30
0.0
 11
2.43362
 21
3.12677
 31
0.0
  0
LINE
  8
0
 62
     0
 10
2.43362
 20
3.12677
 30
0.0
 11
2.09462
 21
3.17913
 31
0.0
  0
LINE
  8
0
 62
     0
 10
2.09462
 20
3.17913
 30
0.0
 11
1.75424
 21
3.12677
 31
0.0
  0
LINE
  8
0
 62
     0
 10
139.106
 20
3.12677
 30
0.0
 11
138.799
 21
2.96967
 31
0.0
  0
LINE
  8
0
 62
     0
 10
138.799
 20
2.96967
 30
0.0
 11
138.556
 21
2.72714
 31
0.0
  0
LINE
  8
0
 62
     0
 10
138.556
 20
2.72714
 30
0.0
 11
138.399
 21
2.41984
 31
0.0
  0
LINE
  8
0
 62
     0
 10
138.399
 20
2.41984
 30
0.0
 11
138.345
 21
2.07946
 31
0.0
  0
LINE
  8
0
 62
     0
 10
138.345
 20
2.07946
 30
0.0
 11
138.399
 21
1.74046
 31
0.0
  0
LINE
  8
0
 62
     0
 10
138.399
 20
1.74046
 30
0.0
 11
138.556
 21
1.43316
 31
0.0
  0
LINE
  8
0
 62
     0
 10
138.556
 20
1.43316
 30
0.0
 11
138.799
 21
1.19063
 31
0.0
  0
LINE
  8
0
 62
     0
 10
138.799
 20
1.19063
 30
0.0
 11
139.106
 21
1.03353
 31
0.0
  0
LINE
  8
0
 62
     0
 10
139.106
 20
1.03353
 30
0.0
 11
139.445
 21
0.979784
 31
0.0
  0
LINE
  8
0
 62
     0
 10
139.445
 20
0.979784
 30
0.0
 11
139.785
 21
1.03353
 31
0.0
  0
LINE
  8
0
 62
     0
 10
139.785
 20
1.03353
 30
0.0
 11
140.091
 21
1.19063
 31
0.0
  0
LINE
  8
0
 62
     0
 10
140.091
 20
1.19063
 30
0.0
 11
140.335
 21
1.43316
 31
0.0
  0
LINE
  8
0
 62
     0
 10
140.335
 20
1.43316
 30
0.0
 11
140.492
 21
1.74046
 31
0.0
  0
LINE
  8
0
 62
     0
 10
140.492
 20
1.74046
 30
0.0
 11
140.546
 21
2.07946
 31
0.0
  0
LINE
  8
0
 62
     0
 10
140.546
 20
2.07946
 30
0.0
 11
140.492
 21
2.41984
 31
0.0
  0
LINE
  8
0
 62
     0
 10
140.492
 20
2.41984
 30
0.0
 11
140.335
 21
2.72714
 31
0.0
  0
LINE
  8
0
 62
     0
 10
140.335
 20
2.72714
 30
0.0
 11
140.091
 21
2.96967
 31
0.0
  0
LINE
  8
0
 62
     0
 10
140.091
 20
2.96967
 30
0.0
 11
139.785
 21
3.12677
 31
0.0
  0
LINE
  8
0
 62
     0
 10
139.785
 20
3.12677
 30
0.0
 11
139.445
 21
3.17913
 31
0.0
  0
LINE
  8
0
 62
     0
 10
139.445
 20
3.17913
 30
0.0
 11
139.106
 21
3.12677
 31
0.0
  0
LINE
  8
0
 62
     0
 10
82.8202
 20
19.6053
 30
0.0
 11
96.8195
 21
19.6053
 31
0.0
  0
LINE
  8
0
 62
     0
 10
96.8195
 20
19.6053
 30
0.0
 11
96.8195
 21
5.60447
 31
0.0
  0
LINE
  8
0
 62
     0
 10
96.8195
 20
5.60447
 30
0.0
 11
82.8202
 21
5.60447
 31
0.0
  0
LINE
  8
0
 62
     0
 10
82.8202
 20
5.60447
 30
0.0
 11
82.8202
 21
19.6053
 31
0.0
  0
LINE
  8
0
 62
     0
 10
101.87
 20
19.6053
 30
0.0
 11
115.87
 21
19.6053
 31
0.0
  0
LINE
  8
0
 62
     0
 10
115.87
 20
19.6053
 30
0.0
 11
115.87
 21
5.60447
 31
0.0
  0
LINE
  8
0
 62
     0
 10
115.87
 20
5.60447
 30
0.0
 11
101.87
 21
5.60447
 31
0.0
  0
LINE
  8
0
 62
     0
 10
101.87
 20
5.60447
 30
0.0
 11
101.87
 21
19.6053
 31
0.0
  0
LINE
  8
0
 62
     0
 10
120.92
 20
26.7491
 30
0.0
 11
134.92
 21
26.7491
 31
0.0
  0
LINE
  8
0
 62
     0
 10
134.92
 20
26.7491
 30
0.0
 11
134.92
 21
12.7482
 31
0.0
  0
LINE
  8
0
 62
     0
 10
134.92
 20
12.7482
 30
0.0
 11
120.92
 21
12.7482
 31
0.0
  0
LINE
  8
0
 62
     0
 10
120.92
 20
12.7482
 30
0.0
 11
120.92
 21
26.7491
 31
0.0
  0
LINE
  8
0
 62
     0
 10
25.6701
 20
38.6553
 30
0.0
 11
39.6695
 21
38.6553
 31
0.0
  0
LINE
  8
0
 62
     0
 10
39.6695
 20
38.6553
 30
0.0
 11
39.6695
 21
24.6545
 31
0.0
  0
LINE
  8
0
 62
     0
 10
39.6695
 20
24.6545
 30
0.0
 11
25.6701
 21
24.6545
 31
0.0
  0
LINE
  8
0
 62
     0
 10
25.6701
 20
24.6545
 30
0.0
 11
25.6701
 21
38.6553
 31
0.0
  0
LINE
  8
0
 62
     0
 10
44.7202
 20
38.6553
 30
0.0
 11
58.7195
 21
38.6553
 31
0.0
  0
LINE
  8
0
 62
     0
 10
58.7195
 20
38.6553
 30
0.0
 11
58.7195
 21
24.6545
 31
0.0
  0
LINE
  8
0
 62
     0
 10
58.7195
 20
24.6545
 30
0.0
 11
44.7202
 21
24.6545
 31
0.0
  0
LINE
  8
0
 62
     0
 10
44.7202
 20
24.6545
 30
0.0
 11
44.7202
 21
38.6553
 31
0.0
  0
LINE
  8
0
 62
     0
 10
63.7702
 20
38.6553
 30
0.0
 11
77.7695
 21
38.6553
 31
0.0
  0
LINE
  8
0
 62
     0
 10
77.7695
 20
38.6553
 30
0.0
 11
77.7695
 21
24.6545
 31
0.0
  0
LINE
  8
0
 62
     0
 10
77.7695
 20
24.6545
 30
0.0
 11
63.7702
 21
24.6545
 31
0.0
  0
LINE
  8
0
 62
     0
 10
63.7702
 20
24.6545
 30
0.0
 11
63.7702
 21
38.6553
 31
0.0
  0
LINE
  8
0
 62
     0
 10
82.8202
 20
38.6553
 30
0.0
 11
96.8195
 21
38.6553
 31
0.0
  0
LINE
  8
0
 62
     0
 10
96.8195
 20
38.6553
 30
0.0
 11
96.8195
 21
24.6545
 31
0.0
  0
LINE
  8
0
 62
     0
 10
96.8195
 20
24.6545
 30
0.0
 11
82.8202
 21
24.6545
 31
0.0
  0
LINE
  8
0
 62
     0
 10
82.8202
 20
24.6545
 30
0.0
 11
82.8202
 21
38.6553
 31
0.0
  0
LINE
  8
0
 62
     0
 10
101.869
 20
38.6553
 30
0.0
 11
115.868
 21
38.6553
 31
0.0
  0
LINE
  8
0
 62
     0
 10
115.868
 20
38.6553
 30
0.0
 11
115.868
 21
24.6545
 31
0.0
  0
LINE
  8
0
 62
     0
 10
115.868
 20
24.6545
 30
0.0
 11
101.869
 21
24.6545
 31
0.0
  0
LINE
  8
0
 62
     0
 10
101.869
 20
24.6545
 30
0.0
 11
101.869
 21
38.6553
 31
0.0
  0
LINE
  8
0
 62
     0
 10
6.61871
 20
57.7053
 30
0.0
 11
20.6196
 21
57.7053
 31
0.0
  0
LINE
  8
0
 62
     0
 10
20.6196
 20
57.7053
 30
0.0
 11
20.6196
 21
43.7046
 31
0.0
  0
LINE
  8
0
 62
     0
 10
20.6196
 20
43.7046
 30
0.0
 11
6.61871
 21
43.7046
 31
0.0
  0
LINE
  8
0
 62
     0
 10
6.61871
 20
43.7046
 30
0.0
 11
6.61871
 21
57.7053
 31
0.0
  0
LINE
  8
0
 62
     0
 10
25.6701
 20
57.7053
 30
0.0
 11
39.6695
 21
57.7053
 31
0.0
  0
LINE
  8
0
 62
     0
 10
39.6695
 20
57.7053
 30
0.0
 11
39.6695
 21
43.7046
 31
0.0
  0
LINE
  8
0
 62
     0
 10
39.6695
 20
43.7046
 30
0.0
 11
25.6701
 21
43.7046
 31
0.0
  0
LINE
  8
0
 62
     0
 10
25.6701
 20
43.7046
 30
0.0
 11
25.6701
 21
57.7053
 31
0.0
  0
LINE
  8
0
 62
     0
 10
44.7202
 20
57.7053
 30
0.0
 11
58.7195
 21
57.7053
 31
0.0
  0
LINE
  8
0
 62
     0
 10
58.7195
 20
57.7053
 30
0.0
 11
58.7195
 21
43.7046
 31
0.0
  0
LINE
  8
0
 62
     0
 10
58.7195
 20
43.7046
 30
0.0
 11
44.7202
 21
43.7046
 31
0.0
  0
LINE
  8
0
 62
     0
 10
44.7202
 20
43.7046
 30
0.0
 11
44.7202
 21
57.7053
 31
0.0
  0
LINE
  8
0
 62
     0
 10
63.7702
 20
57.7053
 30
0.0
 11
77.7695
 21
57.7053
 31
0.0
  0
LINE
  8
0
 62
     0
 10
77.7695
 20
57.7053
 30
0.0
 11
77.7695
 21
43.7046
 31
0.0
  0
LINE
  8
0
 62
     0
 10
77.7695
 20
43.7046
 30
0.0
 11
63.7702
 21
43.7046
 31
0.0
  0
LINE
  8
0
 62
     0
 10
63.7702
 20
43.7046
 30
0.0
 11
63.7702
 21
57.7053
 31
0.0
  0
LINE
  8
0
 62
     0
 10
82.8202
 20
57.7053
 30
0.0
 11
96.8195
 21
57.7053
 31
0.0
  0
LINE
  8
0
 62
     0
 10
96.8195
 20
57.7053
 30
0.0
 11
96.8195
 21
43.7046
 31
0.0
  0
LINE
  8
0
 62
     0
 10
96.8195
 20
43.7046
 30
0.0
 11
82.8202
 21
43.7046
 31
0.0
  0
LINE
  8
0
 62
     0
 10
82.8202
 20
43.7046
 30
0.0
 11
82.8202
 21
57.7053
 31
0.0
  0
LINE
  8
0
 62
     0
 10
101.869
 20
57.7053
 30
0.0
 11
115.868
 21
57.7053
 31
0.0
  0
LINE
  8
0
 62
     0
 10
115.868
 20
57.7053
 30
0.0
 11
115.868
 21
43.7046
 31
0.0
  0
LINE
  8
0
 62
     0
 10
115.868
 20
43.7046
 30
0.0
 11
101.869
 21
43.7046
 31
0.0
  0
LINE
  8
0
 62
     0
 10
101.869
 20
43.7046
 30
0.0
 11
101.869
 21
57.7053
 31
0.0
  0
LINE
  8
0
 62
     0
 10
25.6701
 20
76.7567
 30
0.0
 11
39.6695
 21
76.7567
 31
0.0
  0
LINE
  8
0
 62
     0
 10
39.6695
 20
76.7567
 30
0.0
 11
39.6695
 21
62.7546
 31
0.0
  0
LINE
  8
0
 62
     0
 10
39.6695
 20
62.7546
 30
0.0
 11
25.6701
 21
62.7546
 31
0.0
  0
LINE
  8
0
 62
     0
 10
25.6701
 20
62.7546
 30
0.0
 11
25.6701
 21
76.7567
 31
0.0
  0
LINE
  8
0
 62
     0
 10
44.7202
 20
76.7567
 30
0.0
 11
58.7195
 21
76.7567
 31
0.0
  0
LINE
  8
0
 62
     0
 10
58.7195
 20
76.7567
 30
0.0
 11
58.7195
 21
62.7546
 31
0.0
  0
LINE
  8
0
 62
     0
 10
58.7195
 20
62.7546
 30
0.0
 11
44.7202
 21
62.7546
 31
0.0
  0
LINE
  8
0
 62
     0
 10
44.7202
 20
62.7546
 30
0.0
 11
44.7202
 21
76.7567
 31
0.0
  0
LINE
  8
0
 62
     0
 10
63.7702
 20
76.7567
 30
0.0
 11
77.7695
 21
76.7567
 31
0.0
  0
LINE
  8
0
 62
     0
 10
77.7695
 20
76.7567
 30
0.0
 11
77.7695
 21
62.7546
 31
0.0
  0
LINE
  8
0
 62
     0
 10
77.7695
 20
62.7546
 30
0.0
 11
63.7702
 21
62.7546
 31
0.0
  0
LINE
  8
0
 62
     0
 10
63.7702
 20
62.7546
 30
0.0
 11
63.7702
 21
76.7567
 31
0.0
  0
LINE
  8
0
 62
     0
 10
82.8202
 20
76.7567
 30
0.0
 11
96.8195
 21
76.7567
 31
0.0
  0
LINE
  8
0
 62
     0
 10
96.8195
 20
76.7567
 30
0.0
 11
96.8195
 21
62.7546
 31
0.0
  0
LINE
  8
0
 62
     0
 10
96.8195
 20
62.7546
 30
0.0
 11
82.8202
 21
62.7546
 31
0.0
  0
LINE
  8
0
 62
     0
 10
82.8202
 20
62.7546
 30
0.0
 11
82.8202
 21
76.7567
 31
0.0
  0
LINE
  8
0
 62
     0
 10
101.869
 20
76.7567
 30
0.0
 11
115.868
 21
76.7567
 31
0.0
  0
LINE
  8
0
 62
     0
 10
115.868
 20
76.7567
 30
0.0
 11
115.868
 21
62.7546
 31
0.0
  0
LINE
  8
0
 62
     0
 10
115.868
 20
62.7546
 30
0.0
 11
101.869
 21
62.7546
 31
0.0
  0
LINE
  8
0
 62
     0
 10
101.869
 20
62.7546
 30
0.0
 11
101.869
 21
76.7567
 31
0.0
  0
LINE
  8
0
 62
     0
 10
1.75424
 20
82.3281
 30
0.0
 11
1.44832
 21
82.1711
 31
0.0
  0
LINE
  8
0
 62
     0
 10
1.44832
 20
82.1711
 30
0.0
 11
1.2044
 21
81.927
 31
0.0
  0
LINE
  8
0
 62
     0
 10
1.2044
 20
81.927
 30
0.0
 11
1.04731
 21
81.6211
 31
0.0
  0
LINE
  8
0
 62
     0
 10
1.04731
 20
81.6211
 30
0.0
 11
0.994943
 21
81.2807
 31
0.0
  0
LINE
  8
0
 62
     0
 10
0.994943
 20
81.2807
 30
0.0
 11
1.04731
 21
80.9417
 31
0.0
  0
LINE
  8
0
 62
     0
 10
1.04731
 20
80.9417
 30
0.0
 11
1.2044
 21
80.6344
 31
0.0
  0
LINE
  8
0
 62
     0
 10
1.2044
 20
80.6344
 30
0.0
 11
1.44832
 21
80.3921
 31
0.0
  0
LINE
  8
0
 62
     0
 10
1.44832
 20
80.3921
 30
0.0
 11
1.75424
 21
80.2361
 31
0.0
  0
LINE
  8
0
 62
     0
 10
1.75424
 20
80.2361
 30
0.0
 11
2.09462
 21
80.1811
 31
0.0
  0
LINE
  8
0
 62
     0
 10
2.09462
 20
80.1811
 30
0.0
 11
2.43362
 21
80.2361
 31
0.0
  0
LINE
  8
0
 62
     0
 10
2.43362
 20
80.2361
 30
0.0
 11
2.74092
 21
80.3921
 31
0.0
  0
LINE
  8
0
 62
     0
 10
2.74092
 20
80.3921
 30
0.0
 11
2.98345
 21
80.6344
 31
0.0
  0
LINE
  8
0
 62
     0
 10
2.98345
 20
80.6344
 30
0.0
 11
3.13917
 21
80.9417
 31
0.0
  0
LINE
  8
0
 62
     0
 10
3.13917
 20
80.9417
 30
0.0
 11
3.19429
 21
81.2807
 31
0.0
  0
LINE
  8
0
 62
     0
 10
3.19429
 20
81.2807
 30
0.0
 11
3.13917
 21
81.6211
 31
0.0
  0
LINE
  8
0
 62
     0
 10
3.13917
 20
81.6211
 30
0.0
 11
2.98345
 21
81.927
 31
0.0
  0
LINE
  8
0
 62
     0
 10
2.98345
 20
81.927
 30
0.0
 11
2.74092
 21
82.1711
 31
0.0
  0
LINE
  8
0
 62
     0
 10
2.74092
 20
82.1711
 30
0.0
 11
2.43362
 21
82.3281
 31
0.0
  0
LINE
  8
0
 62
     0
 10
2.43362
 20
82.3281
 30
0.0
 11
2.09462
 21
82.3807
 31
0.0
  0
LINE
  8
0
 62
     0
 10
2.09462
 20
82.3807
 30
0.0
 11
1.75424
 21
82.3281
 31
0.0
  0
LINE
  8
0
 62
     0
 10
139.106
 20
82.3281
 30
0.0
 11
138.799
 21
82.1711
 31
0.0
  0
LINE
  8
0
 62
     0
 10
138.799
 20
82.1711
 30
0.0
 11
138.556
 21
81.927
 31
0.0
  0
LINE
  8
0
 62
     0
 10
138.556
 20
81.927
 30
0.0
 11
138.399
 21
81.6211
 31
0.0
  0
LINE
  8
0
 62
     0
 10
138.399
 20
81.6211
 30
0.0
 11
138.345
 21
81.2807
 31
0.0
  0
LINE
  8
0
 62
     0
 10
138.345
 20
81.2807
 30
0.0
 11
138.399
 21
80.9417
 31
0.0
  0
LINE
  8
0
 62
     0
 10
138.399
 20
80.9417
 30
0.0
 11
138.556
 21
80.6344
 31
0.0
  0
LINE
  8
0
 62
     0
 10
138.556
 20
80.6344
 30
0.0
 11
138.799
 21
80.3921
 31
0.0
  0
LINE
  8
0
 62
     0
 10
138.799
 20
80.3921
 30
0.0
 11
139.106
 21
80.2361
 31
0.0
  0
LINE
  8
0
 62
     0
 10
139.106
 20
80.2361
 30
0.0
 11
139.445
 21
80.1811
 31
0.0
  0
LINE
  8
0
 62
     0
 10
139.445
 20
80.1811
 30
0.0
 11
139.785
 21
80.2361
 31
0.0
  0
LINE
  8
0
 62
     0
 10
139.785
 20
80.2361
 30
0.0
 11
140.091
 21
80.3921
 31
0.0
  0
LINE
  8
0
 62
     0
 10
140.091
 20
80.3921
 30
0.0
 11
140.335
 21
80.6344
 31
0.0
  0
LINE
  8
0
 62
     0
 10
140.335
 20
80.6344
 30
0.0
 11
140.492
 21
80.9417
 31
0.0
  0
LINE
  8
0
 62
     0
 10
140.492
 20
80.9417
 30
0.0
 11
140.546
 21
81.2807
 31
0.0
  0
LINE
  8
0
 62
     0
 10
140.546
 20
81.2807
 30
0.0
 11
140.492
 21
81.6211
 31
0.0
  0
LINE
  8
0
 62
     0
 10
140.492
 20
81.6211
 30
0.0
 11
140.335
 21
81.927
 31
0.0
  0
LINE
  8
0
 62
     0
 10
140.335
 20
81.927
 30
0.0
 11
140.091
 21
82.1711
 31
0.0
  0
LINE
  8
0
 62
     0
 10
140.091
 20
82.1711
 30
0.0
 11
139.785
 21
82.3281
 31
0.0
  0
LINE
  8
0
 62
     0
 10
139.785
 20
82.3281
 30
0.0
 11
139.445
 21
82.3807
 31
0.0
  0
LINE
  8
0
 62
     0
 10
139.445
 20
82.3807
 30
0.0
 11
139.106
 21
82.3281
 31
0.0
  0
ENDSEC
  0
EOF
