<?xml version="1.0" encoding="UTF-8" standalone="no"?>
<!-- Generated by SVGo -->

<svg
   xmlns:dc="http://purl.org/dc/elements/1.1/"
   xmlns:cc="http://creativecommons.org/ns#"
   xmlns:rdf="http://www.w3.org/1999/02/22-rdf-syntax-ns#"
   xmlns:svg="http://www.w3.org/2000/svg"
   xmlns="http://www.w3.org/2000/svg"
   xmlns:sodipodi="http://sodipodi.sourceforge.net/DTD/sodipodi-0.dtd"
   xmlns:inkscape="http://www.inkscape.org/namespaces/inkscape"
   width="151.352mm"
   height="93.202mm"
   viewBox="0.000 0.000 151.352 93.202"
   version="1.1"
   id="svg207"
   sodipodi:docname="switch-plate.svg"
   inkscape:version="0.92.2 5c3e80d, 2017-08-06">
  <metadata
     id="metadata213">
    <rdf:RDF>
      <cc:Work
         rdf:about="">
        <dc:format>image/svg+xml</dc:format>
        <dc:type
           rdf:resource="http://purl.org/dc/dcmitype/StillImage" />
        <dc:title></dc:title>
      </cc:Work>
    </rdf:RDF>
  </metadata>
  <defs
     id="defs211" />
  <sodipodi:namedview
     pagecolor="#ffffff"
     bordercolor="#666666"
     borderopacity="1"
     objecttolerance="10"
     gridtolerance="10"
     guidetolerance="10"
     inkscape:pageopacity="0"
     inkscape:pageshadow="2"
     inkscape:window-width="1363"
     inkscape:window-height="901"
     id="namedview209"
     showgrid="false"
     inkscape:zoom="1.4746867"
     inkscape:cx="273.47482"
     inkscape:cy="198.20724"
     inkscape:window-x="371"
     inkscape:window-y="66"
     inkscape:window-maximized="0"
     inkscape:current-layer="layer1"
     inkscape:measure-start="31.1931,248.188"
     inkscape:measure-end="473.321,320.746"
     inkscape:snap-nodes="true"
     inkscape:snap-others="true"
     inkscape:snap-global="false" />
  <g
     inkscape:groupmode="layer"
     id="layer2"
     inkscape:label="original"
     style="display:none"
     sodipodi:insensitive="true">
    <path
       style="fill:none;stroke:#000000;stroke-width:0.05mm"
       d="m 144.852,5.001 0.117,0.004 0.117,0.014 0.116,0.023 0.113,0.032 0.111,0.041 0.106,0.049 0.103,0.058 0.098,0.065 0.093,0.073 0.086,0.08 0.08,0.086 0.073,0.093 0.065,0.098 0.058,0.103 0.049,0.106 0.041,0.111 0.032,0.113 0.023,0.116 0.014,0.117 0.005,0.118 v 80.201 l -0.005,0.117 -0.014,0.117 -0.023,0.116 -0.032,0.113 -0.041,0.111 -0.049,0.106 -0.058,0.103 -0.065,0.098 -0.073,0.093 -0.08,0.086 -0.086,0.08 -0.093,0.073 -0.098,0.065 -0.103,0.058 -0.106,0.049 -0.111,0.041 -0.113,0.032 -0.116,0.023 -0.117,0.014 -0.117,0.005 H 6.501 L 6.383,88.197 6.266,88.183 6.15,88.16 6.037,88.128 5.926,88.087 5.82,88.038 5.717,87.98 5.619,87.915 5.526,87.842 5.44,87.762 5.36,87.676 5.287,87.583 5.222,87.485 5.164,87.382 5.115,87.276 5.074,87.165 5.042,87.052 5.019,86.936 5.005,86.819 5,86.701 5.001,6.501 5.005,6.383 5.019,6.266 5.042,6.15 5.074,6.037 5.115,5.926 5.164,5.82 5.222,5.717 5.287,5.619 5.36,5.526 5.44,5.44 5.526,5.36 5.619,5.287 5.717,5.222 5.82,5.164 5.926,5.115 6.037,5.074 6.15,5.042 6.266,5.019 6.383,5.005 6.501,5 Z"
       id="polygon159"
       inkscape:connector-curvature="0" />
  </g>
  <g
     inkscape:groupmode="layer"
     id="layer1"
     inkscape:label="new"
     style="display:inline">
    <path
       style="fill:none;stroke:#000000;stroke-width:0.26458332px;stroke-linecap:butt;stroke-linejoin:miter;stroke-opacity:1"
       d="M 126.4257,10.024711 C 125.85863,8.6524916 124.62006,8.1497599 123.03898,8.1590031 H 26.510404 c -1.312159,0.099044 -1.355651,0.261522 -2.414076,1.0583333 L 9.3114985,26.477176 c -0.4637862,0.685605 -0.9434306,1.133335 -1.0583333,2.19954 v 18.033103 c 0.092943,1.23453 0.5261389,1.539657 1.0583333,2.158103 L 26.544579,66.101003 c 0.674933,0.626231 0.842865,0.74387 2.087105,1.234411 l 53.388967,18.160754 c 1.284584,0.398422 2.442302,0.511395 3.853753,0.529217 l 55.182916,5e-5 c 1.10383,0.08166 2.16774,-1.080511 2.11691,-2.388658 l 1.2e-4,-22.360994 c -0.0163,-0.6238 -0.0527,-1.780822 -0.31566,-2.561611 z"
       id="path664"
       inkscape:connector-curvature="0"
       sodipodi:nodetypes="ccccccccccccccccc" />
  </g>
  <g
     inkscape:groupmode="layer"
     id="layer4"
     inkscape:label="screw"
     style="display:inline"
     sodipodi:insensitive="true">
    <polygon
       points="7.001,87.302 7.34,87.248 7.647,87.091 7.89,86.848 8.046,86.541 8.101,86.202 8.046,85.862 7.89,85.555 7.647,85.312 7.34,85.155 7.001,85.102 6.661,85.155 6.354,85.312 6.111,85.555 5.954,85.862 5.901,86.202 5.954,86.541 6.111,86.848 6.354,87.091 6.661,87.248 "
       style="fill:none;stroke:#000000;stroke-width:0.05mm"
       id="polygon161"
       transform="translate(133.6654,-2.5118331)" />
    <polygon
       points="145.398,85.862 145.241,85.555 144.998,85.312 144.691,85.155 144.352,85.102 144.012,85.155 143.705,85.312 143.462,85.555 143.305,85.862 143.252,86.202 143.305,86.541 143.462,86.848 143.705,87.091 144.012,87.248 144.352,87.302 144.691,87.248 144.998,87.091 145.241,86.848 145.398,86.541 145.452,86.202 "
       style="fill:none;stroke:#000000;stroke-width:0.05mm"
       id="polygon163"
       transform="translate(-59.501288,-2.6200264)" />
    <polygon
       points="5.901,7.001 5.954,7.34 6.111,7.647 6.354,7.89 6.661,8.046 7.001,8.101 7.34,8.046 7.647,7.89 7.89,7.647 8.046,7.34 8.101,7.001 8.046,6.661 7.89,6.354 7.647,6.111 7.34,5.954 7.001,5.901 6.661,5.954 6.354,6.111 6.111,6.354 5.954,6.661 "
       style="fill:none;stroke:#000000;stroke-width:0.05mm"
       id="polygon203"
       transform="translate(11.841499,12.200331)" />
    <polygon
       points="144.012,8.046 144.352,8.101 144.691,8.046 144.998,7.89 145.241,7.647 145.398,7.34 145.452,7.001 145.398,6.661 145.241,6.354 144.998,6.111 144.691,5.954 144.352,5.901 144.012,5.954 143.705,6.111 143.462,6.354 143.305,6.661 143.252,7.001 143.305,7.34 143.462,7.647 143.705,7.89 "
       style="fill:none;stroke:#000000;stroke-width:0.05mm"
       id="polygon205"
       transform="translate(-20.37918,3.9471655)" />
    <polygon
       transform="translate(21.673084,58.232667)"
       id="polygon703"
       style="fill:none;stroke:#000000;stroke-width:0.05mm"
       points="6.111,7.647 6.354,7.89 6.661,8.046 7.001,8.101 7.34,8.046 7.647,7.89 7.89,7.647 8.046,7.34 8.101,7.001 8.046,6.661 7.89,6.354 7.647,6.111 7.34,5.954 7.001,5.901 6.661,5.954 6.354,6.111 6.111,6.354 5.954,6.661 5.901,7.001 5.954,7.34 " />
  </g>
  <g
     inkscape:groupmode="layer"
     id="layer3"
     inkscape:label="switch"
     style="display:inline"
     sodipodi:insensitive="true">
    <polygon
       points="101.726,82.676 101.726,68.676 87.726,68.676 87.726,82.676 "
       style="fill:none;stroke:#000000;stroke-width:0.05mm"
       id="polygon165" />
    <polygon
       points="120.776,82.676 120.776,68.676 106.776,68.676 106.776,82.676 "
       style="fill:none;stroke:#000000;stroke-width:0.05mm"
       id="polygon167" />
    <polygon
       points="139.826,75.532 139.826,61.532 125.826,61.532 125.826,75.532 "
       style="fill:none;stroke:#000000;stroke-width:0.05mm"
       id="polygon169" />
    <polygon
       points="44.576,63.626 44.576,49.626 30.576,49.626 30.576,63.626 "
       style="fill:none;stroke:#000000;stroke-width:0.05mm"
       id="polygon171" />
    <polygon
       points="63.626,63.626 63.626,49.626 49.626,49.626 49.626,63.626 "
       style="fill:none;stroke:#000000;stroke-width:0.05mm"
       id="polygon173" />
    <polygon
       points="82.676,63.626 82.676,49.626 68.676,49.626 68.676,63.626 "
       style="fill:none;stroke:#000000;stroke-width:0.05mm"
       id="polygon175" />
    <polygon
       points="101.726,63.626 101.726,49.626 87.726,49.626 87.726,63.626 "
       style="fill:none;stroke:#000000;stroke-width:0.05mm"
       id="polygon177" />
    <polygon
       points="120.775,63.626 120.775,49.626 106.775,49.626 106.775,63.626 "
       style="fill:none;stroke:#000000;stroke-width:0.05mm"
       id="polygon179" />
    <polygon
       points="25.526,44.576 25.526,30.576 11.525,30.576 11.525,44.576 "
       style="fill:none;stroke:#000000;stroke-width:0.05mm"
       id="polygon181" />
    <polygon
       points="44.576,44.576 44.576,30.576 30.576,30.576 30.576,44.576 "
       style="fill:none;stroke:#000000;stroke-width:0.05mm"
       id="polygon183" />
    <polygon
       points="63.626,44.576 63.626,30.576 49.626,30.576 49.626,44.576 "
       style="fill:none;stroke:#000000;stroke-width:0.05mm"
       id="polygon185" />
    <polygon
       points="82.676,44.576 82.676,30.576 68.676,30.576 68.676,44.576 "
       style="fill:none;stroke:#000000;stroke-width:0.05mm"
       id="polygon187" />
    <polygon
       points="101.726,44.576 101.726,30.576 87.726,30.576 87.726,44.576 "
       style="fill:none;stroke:#000000;stroke-width:0.05mm"
       id="polygon189" />
    <polygon
       points="120.775,44.576 120.775,30.576 106.775,30.576 106.775,44.576 "
       style="fill:none;stroke:#000000;stroke-width:0.05mm"
       id="polygon191" />
    <polygon
       points="44.576,25.526 44.576,11.525 30.576,11.525 30.576,25.526 "
       style="fill:none;stroke:#000000;stroke-width:0.05mm"
       id="polygon193" />
    <polygon
       points="63.626,25.526 63.626,11.525 49.626,11.525 49.626,25.526 "
       style="fill:none;stroke:#000000;stroke-width:0.05mm"
       id="polygon195" />
    <polygon
       points="82.676,25.526 82.676,11.525 68.676,11.525 68.676,25.526 "
       style="fill:none;stroke:#000000;stroke-width:0.05mm"
       id="polygon197" />
    <polygon
       points="101.726,25.526 101.726,11.525 87.726,11.525 87.726,25.526 "
       style="fill:none;stroke:#000000;stroke-width:0.05mm"
       id="polygon199" />
    <polygon
       points="120.775,25.526 120.775,11.525 106.775,11.525 106.775,25.526 "
       style="fill:none;stroke:#000000;stroke-width:0.05mm"
       id="polygon201" />
  </g>
</svg>
